# Blender v3.1.2 OBJ File: ''
# www.blender.org
o Cube.001
v -0.152946 0.954939 -2.400394
v -0.709020 0.954938 2.452242
v 1.555262 0.954939 -1.395046
v -2.417228 0.316914 1.446895
v -0.709020 0.316914 2.452242
v -2.417228 0.954938 1.446895
v -0.152946 0.316915 -2.400395
v 1.555262 0.316915 -1.395047
vn 0.0000 1.0000 0.0000
vn -0.5072 0.0000 0.8618
vn -0.8618 0.0000 -0.5072
vn -0.0000 -1.0000 -0.0000
vn 0.8618 -0.0000 0.5072
vn 0.5072 0.0000 -0.8618
s off
f 1//1 2//1 3//1
f 2//2 4//2 5//2
f 6//3 7//3 4//3
f 8//4 4//4 7//4
f 3//5 5//5 8//5
f 1//6 8//6 7//6
f 1//1 6//1 2//1
f 2//2 6//2 4//2
f 6//3 1//3 7//3
f 8//4 5//4 4//4
f 3//5 2//5 5//5
f 1//6 3//6 8//6
